<?xml version="1.0" encoding="utf-8"?>
<!-- Generator: Adobe Illustrator 16.0.4, SVG Export Plug-In . SVG Version: 6.00 Build 0)  -->
<!DOCTYPE svg PUBLIC "-//W3C//DTD SVG 1.0//EN" "http://www.w3.org/TR/2001/REC-SVG-20010904/DTD/svg10.dtd">
<svg version="1.0" id="Layer_1" xmlns="http://www.w3.org/2000/svg" xmlns:xlink="http://www.w3.org/1999/xlink" x="0px" y="0px"
	 width="275.33px" height="159.667px" viewBox="0 0 275.33 159.667" enable-background="new 0 0 275.33 159.667"
	 xml:space="preserve">
<g>
	<g>
		<path fill="#FFFFFF" d="M49.308,58.257c-3.017,8.392-7.401,17.392-13.146,26.999c-2.731,5.738-5.031,10.759-6.896,15.062
			c-1.869,4.303-3.377,8.143-4.526,11.514c-1.151,3.371-1.977,6.346-2.478,8.926c-0.505,2.582-0.754,5.021-0.754,7.313h31.248
			v17.888H2.543v-5.172c0-4.312,0.286-8.438,0.862-12.393c0.573-3.95,1.616-8.331,3.125-13.146
			c1.508-4.812,3.626-10.414,6.357-16.809c2.728-6.391,6.25-14.115,10.56-23.167c2.586-4.741,4.741-9.051,6.465-12.93
			c1.724-3.879,3.158-7.613,4.31-11.206c1.148-3.589,1.973-7.182,2.478-10.775c0.502-3.589,0.754-7.468,0.754-11.637
			c0-7.327-2.875-10.991-8.62-10.991c-2.731,0-4.849,0.899-6.357,2.694c-1.508,1.798-2.263,4.276-2.263,7.435v19.826H4.268V27.861
			c0-3.589,0.501-7.038,1.508-10.344c1.003-3.303,2.549-6.25,4.633-8.835c2.081-2.586,4.633-4.633,7.65-6.142
			c3.017-1.508,6.465-2.263,10.344-2.263c9.193,0,15.732,2.906,19.611,8.714c3.879,5.809,5.819,13.301,5.819,22.48
			C53.833,40.94,52.325,49.866,49.308,58.257z"/>
		<path fill="#FFFFFF" d="M109.11,140.354c-4.815,5.173-11.173,7.759-19.072,7.759c-7.758,0-14.116-2.586-19.072-7.759
			c-4.957-5.172-7.435-12.067-7.435-20.688V28.723c0-8.62,2.478-15.516,7.435-20.688c4.957-5.172,11.314-7.758,19.072-7.758
			c7.899,0,14.257,2.586,19.072,7.758c4.812,5.172,7.219,12.068,7.219,20.688v90.942
			C116.329,128.287,113.921,135.182,109.11,140.354z M98.658,26.75c0-2.431-0.792-4.472-2.371-6.118
			c-1.583-1.643-3.664-2.468-6.25-2.468s-4.67,0.825-6.25,2.468c-1.583,1.646-2.371,3.687-2.371,6.118v94.889
			c0,2.435,0.788,4.476,2.371,6.118c1.579,1.646,3.664,2.468,6.25,2.468s4.667-0.821,6.25-2.468
			c1.579-1.643,2.371-3.684,2.371-6.118V26.75z"/>
	</g>
	<g>
		<path fill="#FFFFFF" d="M145.535,54.266c-1.838,1.867-4.369,2.8-7.594,2.8h-11.2V0.558h11.2c3.225,0,5.755,0.977,7.594,2.928
			c1.838,1.951,2.758,4.907,2.758,8.866v33.09C148.293,49.459,147.373,52.4,145.535,54.266z M140.911,12.088
			c0-1.523-0.262-2.651-0.783-3.386c-0.521-0.734-1.395-1.102-2.61-1.102h-3.394v42.423h3.394c1.217,0,2.088-0.366,2.61-1.101
			c0.521-0.734,0.783-1.862,0.783-3.387V12.088z"/>
		<path fill="#FFFFFF" d="M153.213,57.066V0.558h18.072v7.043h-10.69v17.02h7.467v6.689h-7.467v18.714h10.69v7.042H153.213z"/>
	</g>
	<g>
		<path fill="#FFFFFF" d="M149.849,144.807c-2.326,2.69-5.509,4.036-9.546,4.036c-3.984,0-7.19-1.307-9.616-3.924
			c-2.428-2.615-3.64-6.127-3.64-10.539v-16.366h9.019v16.702c0,3.066,1.304,4.598,3.912,4.598s3.912-1.529,3.912-4.598V73.06h9.452
			v61.098C153.341,138.568,152.177,142.117,149.849,144.807z"/>
		<path fill="#FFFFFF" d="M185.99,140.099c-0.689,1.794-1.63,3.346-2.825,4.652c-1.195,1.309-2.626,2.316-4.292,3.025
			c-1.667,0.71-3.478,1.064-5.433,1.064c-1.957,0-3.768-0.354-5.434-1.064c-1.667-0.709-3.134-1.718-4.4-3.025
			c-1.268-1.308-2.246-2.858-2.934-4.652c-0.689-1.794-1.031-3.812-1.031-6.055V73.06h9.452v61.538c0,3.295,1.431,4.94,4.291,4.94
			c3.007,0,4.511-1.646,4.511-4.94V73.06h9.127v60.986C187.022,136.289,186.678,138.305,185.99,140.099z"/>
		<path fill="#FFFFFF" d="M215.164,147.722L204.95,111.96l-2.934-11.1v46.86h-8.584V73.06h8.909l9.127,35.874l2.716,11.21V73.06
			h8.476v74.663L215.164,147.722L215.164,147.722z"/>
		<path fill="#FFFFFF" d="M229.396,147.722V73.06h9.453v74.663L229.396,147.722L229.396,147.722z"/>
		<path fill="#FFFFFF" d="M272.259,139.761c-0.689,1.869-1.667,3.477-2.934,4.822c-1.268,1.344-2.754,2.393-4.455,3.139
			c-1.703,0.746-3.569,1.121-5.596,1.121c-2.029,0-3.896-0.375-5.596-1.121c-1.703-0.746-3.188-1.795-4.455-3.139
			c-1.27-1.347-2.246-2.953-2.935-4.822c-0.688-1.866-1.032-3.922-1.032-6.166v-46.41c0-4.484,1.305-8.145,3.911-10.986
			c2.608-2.839,5.976-4.26,10.104-4.26s7.498,1.421,10.104,4.26c2.608,2.841,3.912,6.501,3.912,10.986v46.412
			C273.292,135.839,272.947,137.895,272.259,139.761z M263.839,86.289c0-1.418-0.386-2.578-1.156-3.476s-1.888-1.345-3.353-1.345
			c-1.468,0-2.567,0.447-3.3,1.345c-0.733,0.897-1.1,2.058-1.1,3.476v48.205c0,1.496,0.366,2.674,1.1,3.531
			c0.732,0.859,1.833,1.289,3.3,1.289c1.465,0,2.582-0.43,3.353-1.289c0.771-0.857,1.156-2.035,1.156-3.531V86.289z"/>
	</g>
	<rect x="125.997" y="63" fill="#FFFFFF" width="46" height="4"/>
	<rect x="1.997" y="155" fill="#FFFFFF" width="272" height="4"/>
</g>
</svg>
