<?xml version="1.0" encoding="utf-8"?>
<!-- Generator: Adobe Illustrator 16.0.4, SVG Export Plug-In . SVG Version: 6.00 Build 0)  -->
<!DOCTYPE svg PUBLIC "-//W3C//DTD SVG 1.0//EN" "http://www.w3.org/TR/2001/REC-SVG-20010904/DTD/svg10.dtd">
<svg version="1.0" id="Layer_1" xmlns="http://www.w3.org/2000/svg" xmlns:xlink="http://www.w3.org/1999/xlink" x="0px" y="0px"
	 width="221.873px" height="65.548px" viewBox="0 -35.452 221.873 65.548" enable-background="new 0 -35.452 221.873 65.548"
	 xml:space="preserve">
<g>
	<g>
		<path fill="#FFFFFF" d="M3.437-11.849V0.45H0.968v-12.299H3.437z"/>
		<path fill="#FFFFFF" d="M19.003-11.849v2.47h-4.537v9.83h-2.469v-9.83H7.457v-2.47H19.003z"/>
		<path fill="#FFFFFF" d="M24.228-10.359c-0.735,0-1.613-0.52-1.613-1.643c0-0.997,0.853-1.59,1.591-1.59
			c0.973,0,1.967,0.954,1.967,2.663c0,2.092-2.49,4.11-2.829,4.225l-0.282-0.328c0.356-0.214,2.21-1.974,2.21-2.945
			c0-0.098,0-0.379-0.332-0.379h-0.712V-10.359z"/>
		<path fill="#FFFFFF" d="M29.086-3.512c2.134,1.378,4.179,1.876,6.338,1.876c1.236,0,3.329-0.312,3.329-1.685
			c0-0.999-1.094-1.262-1.854-1.285l-3.684-0.119C30.2-4.797,28.73-6.554,28.73-8.456c0-1.829,1.354-3.775,5.771-3.775
			c3.229,0,5.201,1.234,5.937,1.613L39.324-8.43c-0.973-0.498-2.759-1.331-5.204-1.331c-1.309,0-2.922,0.286-2.922,1.378
			c0,0.952,1.353,1.189,2.183,1.189l3.211,0.119c2.829,0.07,4.633,1.285,4.633,3.873c0,2.209-1.737,4.036-5.799,4.036
			c-3.323,0-5.77-0.831-7.482-2.137L29.086-3.512z"/>
	</g>
	<g>
		<path fill="#FFFFFF" d="M168.898-11.849v2.47h-4.538v9.83h-2.468v-9.83h-4.543v-2.47H168.898z"/>
		<path fill="#FFFFFF" d="M175.411-11.849V0.45h-2.472v-12.299H175.411z"/>
		<path fill="#FFFFFF" d="M183.742-7.385h-0.047V0.45h-2.476v-12.299h2.476l4.32,6.175l4.32-6.175h2.473V0.45h-2.473v-7.835h-0.042
			l-4.278,6.175L183.742-7.385z"/>
		<path fill="#FFFFFF" d="M211.508-11.849v2.47h-8.456v2.234h4.467v2.47h-4.467v2.661h8.74v2.468h-11.215v-12.302H211.508z"/>
	</g>
	<g>
		<g>
			<path fill="#C3002F" d="M153.782-10.624c-0.8,0.14-1.613-0.365-1.774-1.223c-0.146-0.852,0.445-1.609,1.237-1.745
				c0.806-0.14,1.611,0.369,1.767,1.221C155.166-11.493,154.568-10.762,153.782-10.624z M153.311-13.249
				c-0.592,0.11-1.024,0.653-0.905,1.329c0.118,0.685,0.712,1.054,1.31,0.95l0.009,0.004c0.57-0.102,1.014-0.655,0.886-1.333
				C154.49-12.988,153.898-13.353,153.311-13.249z M153.415-11.345l-0.318,0.051l-0.25-1.45l0.552-0.095
				c0.377-0.065,0.614,0,0.678,0.333c0.041,0.269-0.093,0.392-0.288,0.441l0.479,0.572l-0.365,0.063l-0.44-0.558l-0.152,0.034
				L153.415-11.345z M153.554-12.252c0.134-0.023,0.204-0.066,0.183-0.227c-0.034-0.146-0.183-0.133-0.31-0.112l-0.229,0.036
				l0.063,0.35L153.554-12.252z"/>
		</g>
		<path fill="#C3002F" d="M149.556-10.781l0.094-0.023l1.187,0.896l-0.074,0.382c-24.037,7.479-59.799,24.288-68.155,33.961
			l-0.074,0.087l-0.11-0.005c-9.012-1.221-21.438,0.941-24.747,2.173l-0.142,0.045l-0.787-0.963l0.087-0.33
			C86.291,12.073,127.607-4.659,149.556-10.781 M104.781-12.736c1.672-0.081,2.797-1.505,2.749-2.735
			c-0.021-0.594-0.253-1.106-0.673-1.495c-0.443-0.392-1.038-0.598-1.69-0.57c-1.312,0.061-2.756,1.25-2.713,2.777
			c0.01,0.059,0.007,0.127,0.016,0.187c0.059,0.496,0.251,0.918,0.609,1.225C103.598-12.861,104.294-12.721,104.781-12.736
			 M153.881-23.03l-0.047,0.115c-0.017,0.117-0.719,2.644-3.051,3.834c-2.084,1.064-3.229,0.028-3.625-0.477
			c-0.333,0.409-1.139,1.473-2.325,3.296c-1.675,2.626-2.66,5.866-2.66,5.904l-0.028,0.091l-3.794,1.295l-0.264-0.604
			c0,0,0.344-1.251,0.639-2.279c-1.843,2.635-4.52,5.387-7.723,5.533c-1.972,0.098-3.364-0.784-4.023-2.38
			c-1.811,3.928-4.308,6.182-7.094,6.309c-1.365,0.068-2.325-0.57-2.758-1.728c-2.224,3.99-4.632,4.973-6.311,5.047
			c-0.836,0.042-1.581-0.185-2.111-0.632c-0.377-0.32-0.603-0.78-0.75-1.306c-1.887,3.292-3.675,5.361-6.574,5.497
			c-1.231,0.072-2.134-0.507-2.59-1.52c-1.537,2.421-3.685,5.085-6.928,5.247c-0.593,0.032-1.726-0.038-2.511-0.776
			c-0.562-0.49-0.839-1.206-0.871-2.116C88.436,3.513,89.386,0.31,90.3-2.742c0.883-2.915,1.717-5.668,1.663-7.114
			c-0.017-0.511-0.143-0.734-0.233-0.833c0,0-0.156-0.095-0.29-0.093c-0.477,0.013-1.221,0.384-2.108,1.011
			c0,0-2.488,1.872-2.616,1.97c-0.772,6.495-2.25,12.509-4.795,19.494l-0.036,0.081l-2.999,1.255l-1.944,0.835l-0.517-0.492
			l0.052-0.146c1.982-4.965,5.26-14.248,5.036-20.658c-0.005-0.468-0.123-0.806-0.301-0.979c-0.122-0.106-0.268-0.155-0.456-0.146
			c-0.408,0.021-1.537,0.666-2.566,1.478c0,0-1.854,1.462-2.005,1.579c0.004,0.206,0.008,0.655,0.008,0.659
			c0.195,8.969-4.724,18.981-7.005,22.134l-0.041,0.053l-3.424,1.423l-2.688,1.13l-0.527-0.483l0.147-0.19
			c1.95-2.75,8.282-12.283,8.31-21.199c-0.008-2.434-0.772-4.439-2.205-5.845c-1.422-1.342-3.439-1.988-5.813-1.865
			c-5.599,0.322-11.603,3.977-11.611,8.88c0,1.191,0.484,2.378,1.348,3.199C53.655,3.323,55,3.753,56.577,3.653
			c1.976-0.1,2.9-0.947,3.312-1.66c0.414-0.679,0.478-1.403,0.323-1.755l-0.038-0.081l0.299-0.691c0,0,1.726-0.199,3.47-0.723
			c1.593-0.479,3.391-1.391,3.391-1.391l0.542,0.384l0.122,0.11l-0.035,0.148c0,0-0.028,0.244-0.03,0.248
			C67.746,1.976,64.22,5.89,57.874,6.26c-2.808,0.136-5.332-0.642-6.917-2.147c-1.282-1.208-1.959-2.911-1.945-4.863
			c0.002-6.877,8.642-10.971,14.485-11.566c6.735-0.695,10.61,1.836,12.069,4.514c0.36-0.331,8.464-8.016,8.826-8.361
			c0.006-0.008,0.013-0.015,0.013-0.015l0.152-0.129c0,0,0.147,0.159,0.512,0.473c0.688,0.587,1.689,1.761,1.805,3.496
			c0.03,0.504,0.08,1.412,0.074,1.66c2.396-2.054,9.19-8.077,9.19-8.077s0.195,0.246,0.51,0.577c1.104,1.153,1.997,2.796,1.28,6.084
			c-0.468,2.056-1.783,5.387-3.15,10.267c-0.93,3.171-1.39,5.478-1.363,6.08c-0.022,0.252,0.052,0.435,0.171,0.542
			c0.087,0.085,0.247,0.115,0.476,0.115c1.932-0.091,4.022-3.689,5.109-7.166l2.095-7.083c0,0,2.84-1.124,4.036-1.887l0.316-0.195
			l0.806,0.95l-0.245,0.273c-0.161,0.161-0.373,0.568-0.53,1.075c-2.481,8.002-2.637,8.524-2.651,8.533
			c-0.135,0.468-0.211,0.871-0.205,1.21c0.002,0.068,0.002,0.121,0.009,0.17c0.041,0.252,0.109,0.456,0.243,0.574l0.38,0.123
			c1.483-0.062,3.248-2.906,4.958-7.971l3.578-12.024l0.019-0.098l0.104-0.038c0,0,0.192-0.072,0.133-0.062
			c0.939-0.401,2.506-1.164,3.862-1.991l0.302-0.195l0.826,0.954l-0.261,0.252c-0.071,0.081-0.23,0.305-0.417,0.967l-3.88,13.122
			c-0.462,1.637-0.509,2.307-0.509,2.682c-0.006,0.047,0.005,0.089,0.02,0.123c0.015,0.252,0.112,0.46,0.23,0.587l0.306,0.097
			c1.67-0.074,3.252-2.633,5.24-8.551l3.269-10.822c0,0,2.659-1.17,4.037-2.037l0.152-0.104l0.154-0.104l0.808,0.958l-0.136,0.144
			c0,0-0.114,0.121-0.105,0.119c-0.085,0.083-0.233,0.335-0.429,0.952c0,0-3.922,12.671-3.937,12.677
			c-0.362,1.138-0.547,2.3-0.515,2.794c0.004,0.428,0.114,0.621,0.19,0.695l0.233,0.066c1.128-0.045,3.046-1.978,4.715-6.082
			c1.742-5.628,4.248-8.433,7.64-8.601c0.81-0.04,1.514,0.201,2.037,0.676c0.469,0.428,0.789,1.054,0.867,1.715
			c0.007,0.083,0.013,0.169,0.013,0.244c0.087,2.763-2.412,5.442-6.372,6.896c0,0.044,0.009,0.104,0.009,0.15
			c0.144,1.108,0.656,1.645,1.558,1.592c3.576-0.171,6.977-6.205,8.278-9.997l0.898-2.51l0.136-0.369l3.438-1.412l0.57,0.492
			c0,0-0.862,2.446-1.389,3.96c1.166-1.626,3.799-5.44,3.799-5.44l1.101,0.191l0.163,0.263c-0.127,0.428-0.354,1.611,0.025,2.076
			c0.14,0.163,0.335,0.216,0.61,0.201c1.519-0.138,3.009-2.376,3.025-2.397l0.315-0.038L153.881-23.03z M133.973-17.336
			c-0.004-0.089-0.02-0.164-0.017-0.248c-0.049-0.284-0.112-0.5-0.223-0.583l-0.208-0.083c-1.219,0.053-2.809,3.398-2.998,6.074
			C133.077-13.514,134.013-16.017,133.973-17.336"/>
	</g>
	<circle fill="#FFFFFF" cx="216.651" cy="-0.78" r="1.253"/>
</g>
</svg>
