<?xml version="1.0" encoding="utf-8"?>
<!-- Generator: Adobe Illustrator 16.0.4, SVG Export Plug-In . SVG Version: 6.00 Build 0)  -->
<!DOCTYPE svg PUBLIC "-//W3C//DTD SVG 1.0//EN" "http://www.w3.org/TR/2001/REC-SVG-20010904/DTD/svg10.dtd">
<svg version="1.0" id="Layer_1" xmlns="http://www.w3.org/2000/svg" xmlns:xlink="http://www.w3.org/1999/xlink" x="0px" y="0px"
	 width="25px" height="25px" viewBox="0 0 25 25" enable-background="new 0 0 25 25" xml:space="preserve">
<g>
	<g>
		<path fill="#005193" d="M12.499,0C5.596,0,0,5.596,0,12.499C0,19.404,5.596,25,12.499,25C19.403,25,25,19.404,25,12.499
			C25,5.596,19.403,0,12.499,0L12.499,0z M15.461,8.638h-1.88c-0.223,0-0.471,0.292-0.471,0.683v1.358h2.351v1.934H13.11v5.809
			h-2.219v-5.809H8.88v-1.934h2.012v-1.14c0-1.633,1.133-2.96,2.689-2.96h1.88V8.638z M15.461,8.638"/>
	</g>
</g>
</svg>
