<?xml version="1.0" encoding="utf-8"?>
<!-- Generator: Adobe Illustrator 16.0.4, SVG Export Plug-In . SVG Version: 6.00 Build 0)  -->
<!DOCTYPE svg PUBLIC "-//W3C//DTD SVG 1.0//EN" "http://www.w3.org/TR/2001/REC-SVG-20010904/DTD/svg10.dtd">
<svg version="1.0" id="Layer_1" xmlns="http://www.w3.org/2000/svg" xmlns:xlink="http://www.w3.org/1999/xlink" x="0px" y="0px"
	 width="25px" height="25px" viewBox="0 0 25 25" enable-background="new 0 0 25 25" xml:space="preserve">
<g>
	<path fill="#005193" d="M12.495,0C5.601,0,0,5.599,0,12.495C0,19.4,5.601,25,12.495,25C19.401,25,25,19.4,25,12.495
		C25,5.591,19.401,0,12.495,0L12.495,0z M18.722,9.696l0.008,0.396c0,4.066-3.098,8.758-8.76,8.758
		c-1.738,0-3.354-0.511-4.715-1.389c0.237,0.031,0.482,0.046,0.732,0.046c1.443,0,2.77-0.496,3.822-1.32
		c-1.35-0.023-2.479-0.916-2.875-2.137c0.189,0.039,0.381,0.054,0.581,0.054c0.281,0,0.556-0.039,0.809-0.107
		c-1.405-0.283-2.466-1.525-2.466-3.013v-0.04c0.412,0.23,0.886,0.367,1.389,0.383C6.423,10.78,5.883,9.833,5.883,8.772
		c0-0.564,0.151-1.098,0.42-1.549c1.51,1.861,3.783,3.082,6.34,3.213c-0.056-0.223-0.077-0.459-0.077-0.703
		c0-1.693,1.373-3.074,3.074-3.074c0.885,0,1.686,0.375,2.25,0.969c0.695-0.136,1.357-0.388,1.953-0.74
		c-0.229,0.719-0.717,1.32-1.357,1.701c0.625-0.076,1.221-0.244,1.77-0.488C19.843,8.72,19.317,9.261,18.722,9.696L18.722,9.696z
		 M18.722,9.696"/>
</g>
</svg>
